# xmcd
#
# Track frame offsets:
#	150
#	12106
#	31334
#	46553
#	64328
#	80216
#	92881
#	104420
#	125328
#	136395
#	155618
#
# Disc length: 2187 seconds
#
# Revision: 0
# Processed by: cddbd v1.4PL0 Copyright (c) Steve Scherf et al.
# Submitted via: audiograbber 1.81.01
#
DISCID=8d08890b
DTITLE=The Robin Thrush Jr. Band - Born To Play
DYEAR=2002
DGENRE=Blues
TTITLE0=Hideaway
TTITLE1=Goin' Down
TTITLE2=Fade To Blue
TTITLE3=Mystery To Me
TTITLE4=Blues for Michael
TTITLE5=Before You Accuse Me
TTITLE6=All Behind Me Now
TTITLE7=To See You Smile
TTITLE8=She Won't Care
TTITLE9=Long Black Highway
TTITLE10=Freddie's Rock
EXTD=
EXTT0=
EXTT1=
EXTT2=
EXTT3=
EXTT4=
EXTT5=
EXTT6=
EXTT7=
EXTT8=
EXTT9=
EXTT10=
PLAYORDER=
